<svg xmlns="http://www.w3.org/2000/svg" viewBox="0 0 32 32">
  <defs>
    <linearGradient id="grad" x1="0%" y1="0%" x2="100%" y2="100%">
      <stop offset="0%" style="stop-color:#F472B6;stop-opacity:1" />
      <stop offset="50%" style="stop-color:#A855F7;stop-opacity:1" />
      <stop offset="100%" style="stop-color:#06B6D4;stop-opacity:1" />
    </linearGradient>
  </defs>
  <rect width="32" height="32" rx="8" fill="url(#grad)" />
  <g transform="translate(4, 4)">
    <svg width="24" height="24" viewBox="0 0 24 24" fill="none" stroke="white" stroke-width="2" stroke-linecap="round" stroke-linejoin="round">
      <path d="M10 11h.01"/>
      <path d="M14 6h.01"/>
      <path d="M18 6h.01"/>
      <path d="M6.5 13.1h.01"/>
      <path d="M22 5c0 9-4 12-6 12s-6-3-6-12c0-2 2-3 6-3s6 1 6 3"/>
      <path d="M17.4 11.5c-2.7 1-6.3 1-9 .5"/>
      <path d="M2 10.6c0-3 1.8-5 5-5 4 0 5 3 5 5s-1 5-5 5c-3.2 0-5-2-5-5"/>
      <path d="M6 14c1.5 0 3-.2 4-.6"/>
    </svg>
  </g>
</svg>
